# xmcd
#
# Track frame offsets:
#	150
#	11850
#	27147
#	40392
#	50840
#	61117
#	72875
#	83430
#	100179
#	109234
#	118908
#	131429
#	140525
#	149698
#	162454
#	174774
#	189423
#	201354
#	213380
#	225671
#
# Disc length: 3166 seconds
#
# Revision: 0
# Processed by: cddbd v1.5.2PL0 Copyright (c) Steve Scherf et al.
# Submitted via: audiograbber 1.83.01
#
DISCID=220c5c14
DTITLE=Compilation - Un air de guinguette - CD 1
DYEAR=2005
DGENRE=Dance
TTITLE0=Aimable - Frou-frou
TTITLE1=Sidney Bechett - Premier bal
TTITLE2=Jo Privat - Balajo
TTITLE3=Jacky Noguez - Le grand frisé
TTITLE4=Augusto  Baldi - Aubade d'oiseaux
TTITLE5=Cyril Olmeta - A Nogent
TTITLE6=Diane May - Samedi madison
TTITLE7=Georgette Plana - L'hirondelle des faubourgs
TTITLE8=Luis Corona - La  musette
TTITLE9=Aimable - Le tango des fauvettes
TTITLE10=Musette Orchestra - Allez les gars
TTITLE11=Vincent Cloti - Le bal des guinguettes
TTITLE12=Roland Laninnetti - Les nocturnes
TTITLE13=Alain Trevarin - La valse des Orvilliers
TTITLE14=Claude Luter - Ain't she sweet
TTITLE15=Edouard Duleu - Perles de cristal
TTITLE16=Robert Ripa - La bague à Jules
TTITLE17=Eric Bouvelle et son orchestre - Chanteur de bossa
TTITLE18=Gremilda Perez - Cocobaion
TTITLE19=Mathieu William et son orchestre - Piste 20
EXTD=
EXTT0=
EXTT1=
EXTT2=
EXTT3=
EXTT4=
EXTT5=
EXTT6=
EXTT7=
EXTT8=
EXTT9=
EXTT10=
EXTT11=
EXTT12=
EXTT13=
EXTT14=
EXTT15=
EXTT16=
EXTT17=
EXTT18=
EXTT19=
PLAYORDER=
